<mxfile host="app.diagrams.net" modified="2023-10-06T08:53:27.200Z" agent="Mozilla/5.0 (Windows NT 10.0; Win64; x64) AppleWebKit/537.36 (KHTML, like Gecko) Chrome/117.0.0.0 Safari/537.36 Edg/117.0.2045.47" etag="g3qMgTMjy1An3Ucyv73E" version="22.0.3" type="device">
  <diagram name="Page-1" id="gy5HiW1rjGnmh-w3rx8Z">
    <mxGraphModel dx="1066" dy="673" grid="1" gridSize="10" guides="1" tooltips="1" connect="1" arrows="1" fold="1" page="1" pageScale="1" pageWidth="850" pageHeight="1100" math="0" shadow="0">
      <root>
        <mxCell id="0" />
        <mxCell id="1" parent="0" />
        <mxCell id="EKbPg48_0JpqiVCAlfKV-2" style="edgeStyle=orthogonalEdgeStyle;rounded=0;orthogonalLoop=1;jettySize=auto;html=1;" edge="1" parent="1" source="EKbPg48_0JpqiVCAlfKV-1">
          <mxGeometry relative="1" as="geometry">
            <mxPoint x="250" y="170" as="targetPoint" />
          </mxGeometry>
        </mxCell>
        <mxCell id="EKbPg48_0JpqiVCAlfKV-1" value="&lt;b&gt;&lt;font style=&quot;font-size: 18px;&quot;&gt;Raw data&lt;/font&gt;&lt;/b&gt;" style="rounded=1;whiteSpace=wrap;html=1;" vertex="1" parent="1">
          <mxGeometry x="80" y="140" width="100" height="60" as="geometry" />
        </mxCell>
        <mxCell id="EKbPg48_0JpqiVCAlfKV-4" style="edgeStyle=orthogonalEdgeStyle;rounded=0;orthogonalLoop=1;jettySize=auto;html=1;entryX=0.5;entryY=0;entryDx=0;entryDy=0;" edge="1" parent="1" source="EKbPg48_0JpqiVCAlfKV-3" target="EKbPg48_0JpqiVCAlfKV-5">
          <mxGeometry relative="1" as="geometry">
            <mxPoint x="310" y="270" as="targetPoint" />
          </mxGeometry>
        </mxCell>
        <mxCell id="EKbPg48_0JpqiVCAlfKV-6" style="edgeStyle=orthogonalEdgeStyle;rounded=0;orthogonalLoop=1;jettySize=auto;html=1;entryX=0;entryY=0.5;entryDx=0;entryDy=0;" edge="1" parent="1" source="EKbPg48_0JpqiVCAlfKV-3" target="EKbPg48_0JpqiVCAlfKV-7">
          <mxGeometry relative="1" as="geometry">
            <mxPoint x="430" y="170" as="targetPoint" />
          </mxGeometry>
        </mxCell>
        <mxCell id="EKbPg48_0JpqiVCAlfKV-3" value="&lt;font style=&quot;font-size: 18px;&quot;&gt;&lt;b&gt;Copy data&lt;/b&gt;&lt;/font&gt;" style="rounded=1;whiteSpace=wrap;html=1;" vertex="1" parent="1">
          <mxGeometry x="250" y="140" width="120" height="60" as="geometry" />
        </mxCell>
        <mxCell id="EKbPg48_0JpqiVCAlfKV-5" value="&lt;font style=&quot;font-size: 18px;&quot;&gt;&lt;b&gt;Blob storage&lt;/b&gt;&lt;/font&gt;" style="rounded=1;whiteSpace=wrap;html=1;" vertex="1" parent="1">
          <mxGeometry x="250" y="280" width="120" height="60" as="geometry" />
        </mxCell>
        <mxCell id="EKbPg48_0JpqiVCAlfKV-9" value="" style="edgeStyle=orthogonalEdgeStyle;rounded=0;orthogonalLoop=1;jettySize=auto;html=1;" edge="1" parent="1" source="EKbPg48_0JpqiVCAlfKV-7" target="EKbPg48_0JpqiVCAlfKV-8">
          <mxGeometry relative="1" as="geometry" />
        </mxCell>
        <mxCell id="EKbPg48_0JpqiVCAlfKV-27" style="edgeStyle=orthogonalEdgeStyle;rounded=0;orthogonalLoop=1;jettySize=auto;html=1;entryX=0;entryY=0.5;entryDx=0;entryDy=0;" edge="1" parent="1" source="EKbPg48_0JpqiVCAlfKV-7" target="EKbPg48_0JpqiVCAlfKV-13">
          <mxGeometry relative="1" as="geometry">
            <mxPoint x="700" y="170" as="targetPoint" />
          </mxGeometry>
        </mxCell>
        <mxCell id="EKbPg48_0JpqiVCAlfKV-7" value="&lt;font style=&quot;font-size: 18px;&quot;&gt;&lt;b&gt;Data bricks notebook&lt;/b&gt;&lt;/font&gt;" style="rounded=1;whiteSpace=wrap;html=1;" vertex="1" parent="1">
          <mxGeometry x="450" y="140" width="120" height="60" as="geometry" />
        </mxCell>
        <mxCell id="EKbPg48_0JpqiVCAlfKV-11" value="" style="edgeStyle=orthogonalEdgeStyle;rounded=0;orthogonalLoop=1;jettySize=auto;html=1;" edge="1" parent="1" source="EKbPg48_0JpqiVCAlfKV-8" target="EKbPg48_0JpqiVCAlfKV-10">
          <mxGeometry relative="1" as="geometry" />
        </mxCell>
        <mxCell id="EKbPg48_0JpqiVCAlfKV-20" value="" style="edgeStyle=orthogonalEdgeStyle;rounded=0;orthogonalLoop=1;jettySize=auto;html=1;" edge="1" parent="1" source="EKbPg48_0JpqiVCAlfKV-8" target="EKbPg48_0JpqiVCAlfKV-19">
          <mxGeometry relative="1" as="geometry" />
        </mxCell>
        <mxCell id="EKbPg48_0JpqiVCAlfKV-8" value="&lt;font style=&quot;font-size: 18px;&quot;&gt;&lt;b&gt;Data cleaning&lt;/b&gt;&lt;/font&gt;" style="rounded=1;whiteSpace=wrap;html=1;" vertex="1" parent="1">
          <mxGeometry x="450" y="280" width="120" height="60" as="geometry" />
        </mxCell>
        <mxCell id="EKbPg48_0JpqiVCAlfKV-22" value="" style="edgeStyle=orthogonalEdgeStyle;rounded=0;orthogonalLoop=1;jettySize=auto;html=1;" edge="1" parent="1" source="EKbPg48_0JpqiVCAlfKV-10" target="EKbPg48_0JpqiVCAlfKV-21">
          <mxGeometry relative="1" as="geometry" />
        </mxCell>
        <mxCell id="EKbPg48_0JpqiVCAlfKV-10" value="&lt;font style=&quot;font-size: 18px;&quot;&gt;&lt;b&gt;Data transformation&lt;/b&gt;&lt;/font&gt;" style="whiteSpace=wrap;html=1;rounded=1;" vertex="1" parent="1">
          <mxGeometry x="440" y="460" width="140" height="60" as="geometry" />
        </mxCell>
        <mxCell id="EKbPg48_0JpqiVCAlfKV-15" value="" style="edgeStyle=orthogonalEdgeStyle;rounded=0;orthogonalLoop=1;jettySize=auto;html=1;" edge="1" parent="1" source="EKbPg48_0JpqiVCAlfKV-13" target="EKbPg48_0JpqiVCAlfKV-14">
          <mxGeometry relative="1" as="geometry" />
        </mxCell>
        <mxCell id="EKbPg48_0JpqiVCAlfKV-13" value="&lt;font style=&quot;font-size: 18px;&quot;&gt;&lt;b&gt;Power BI&lt;/b&gt;&lt;/font&gt;" style="rounded=1;whiteSpace=wrap;html=1;" vertex="1" parent="1">
          <mxGeometry x="710" y="140" width="120" height="60" as="geometry" />
        </mxCell>
        <mxCell id="EKbPg48_0JpqiVCAlfKV-14" value="&lt;font style=&quot;font-size: 18px;&quot;&gt;&lt;b&gt;Visualization&lt;/b&gt;&lt;/font&gt;" style="whiteSpace=wrap;html=1;rounded=1;" vertex="1" parent="1">
          <mxGeometry x="710" y="260" width="120" height="60" as="geometry" />
        </mxCell>
        <mxCell id="EKbPg48_0JpqiVCAlfKV-19" value="&lt;font style=&quot;font-size: 18px;&quot;&gt;&lt;b&gt;Staging&lt;br&gt;&lt;/b&gt;&lt;/font&gt;" style="whiteSpace=wrap;html=1;rounded=1;" vertex="1" parent="1">
          <mxGeometry x="580" y="350" width="120" height="60" as="geometry" />
        </mxCell>
        <mxCell id="EKbPg48_0JpqiVCAlfKV-21" value="&lt;font style=&quot;font-size: 18px;&quot;&gt;&lt;b&gt;curated&lt;/b&gt;&lt;/font&gt;" style="whiteSpace=wrap;html=1;rounded=1;" vertex="1" parent="1">
          <mxGeometry x="610" y="460" width="120" height="60" as="geometry" />
        </mxCell>
      </root>
    </mxGraphModel>
  </diagram>
</mxfile>
